<svg xmlns="http://www.w3.org/2000/svg" width="1421" height="308" viewBox="0 0 1421 308">
  <path d="M 652.00 295.00 L 681.00 295.00 L 682.00 296.00 L 730.00 297.00 L 767.00 297.00 L 806.00 295.00 L 815.00 294.00 L 816.00 293.00 L 820.00 292.00 L 791.00 293.00 L 652.00 292.00 Z M 613.00 296.00 L 612.00 293.00 L 609.00 288.00 L 607.00 282.00 L 604.00 277.00 L 603.00 296.00 Z M 1400.00 265.00 L 1399.00 270.00 L 1400.00 271.00 L 1400.00 285.00 L 1401.00 286.00 L 1401.00 288.00 L 1405.00 289.00 L 1410.00 288.00 L 1410.00 286.00 L 1402.00 271.00 L 1402.00 269.00 Z M 368.00 251.00 L 366.00 253.00 L 345.00 296.00 L 368.00 296.00 Z M 1171.00 232.00 L 1169.00 234.00 L 1160.00 254.00 L 1158.00 256.00 L 1156.00 262.00 L 1152.00 268.00 L 1150.00 274.00 L 1147.00 278.00 L 1146.00 282.00 L 1144.00 284.00 L 1143.00 286.00 L 1143.00 288.00 L 1167.00 288.00 L 1167.00 280.00 L 1168.00 279.00 L 1168.00 265.00 L 1169.00 252.00 L 1170.00 251.00 L 1170.00 239.00 L 1171.00 238.00 Z M 14.00 126.00 L 13.00 133.00 L 12.00 134.00 L 10.00 167.00 L 10.00 294.00 L 14.00 294.00 Z M 911.00 144.00 L 901.00 128.00 L 898.00 125.00 L 898.00 124.00 L 895.00 122.00 L 895.00 124.00 L 896.00 125.00 L 896.00 129.00 L 897.00 130.00 L 898.00 135.00 L 900.00 156.00 L 900.00 172.00 L 899.00 183.00 L 896.00 200.00 L 891.00 214.00 L 885.00 224.00 L 882.00 228.00 L 874.00 236.00 L 866.00 242.00 L 852.00 249.00 L 841.00 253.00 L 823.00 257.00 L 800.00 260.00 L 764.00 262.00 L 734.00 262.00 L 689.00 260.00 L 652.00 260.00 L 652.00 289.00 L 842.00 289.00 L 851.00 287.00 L 854.00 285.00 L 863.00 283.00 L 882.00 274.00 L 896.00 264.00 L 910.00 250.00 L 913.00 246.00 L 921.00 233.00 L 925.00 224.00 L 928.00 216.00 L 932.00 201.00 L 932.00 194.00 L 928.00 185.00 L 928.00 182.00 L 919.00 160.00 Z M 276.00 294.00 L 276.00 267.00 L 277.00 266.00 L 278.00 213.00 L 278.00 183.00 L 277.00 153.00 L 274.00 124.00 L 273.00 117.00 L 272.00 116.00 L 272.00 113.00 L 272.00 294.00 Z M 497.00 60.00 L 497.00 62.00 L 495.00 68.00 L 492.00 73.00 L 486.00 91.00 L 482.00 99.00 L 482.00 101.00 L 486.00 108.00 L 488.00 114.00 L 491.00 118.00 L 502.00 144.00 L 508.00 157.00 L 510.00 159.00 L 516.00 174.00 L 523.00 189.00 L 525.00 191.00 L 531.00 204.00 L 537.00 219.00 L 543.00 232.00 L 546.00 236.00 L 552.00 249.00 L 558.00 264.00 L 566.00 279.00 L 573.00 296.00 L 599.00 296.00 L 599.00 266.00 L 577.00 220.00 L 572.00 212.00 L 557.00 179.00 L 554.00 175.00 L 542.00 148.00 L 538.00 142.00 L 526.00 115.00 L 523.00 111.00 L 507.00 76.00 L 499.00 60.00 Z M 1298.00 55.00 L 1296.00 57.00 L 1292.00 65.00 L 1290.00 72.00 L 1288.00 74.00 L 1286.00 81.00 L 1282.00 88.00 L 1281.00 91.00 L 1281.00 96.00 L 1292.00 120.00 L 1301.00 137.00 L 1313.00 165.00 L 1321.00 180.00 L 1327.00 195.00 L 1336.00 212.00 L 1347.00 238.00 L 1356.00 255.00 L 1362.00 270.00 L 1371.00 288.00 L 1395.00 289.00 L 1397.00 288.00 L 1397.00 284.00 L 1395.00 256.00 L 1394.00 253.00 L 1386.00 236.00 L 1383.00 232.00 L 1372.00 207.00 L 1368.00 201.00 L 1356.00 174.00 L 1352.00 168.00 L 1337.00 135.00 L 1322.00 104.00 L 1318.00 98.00 L 1307.00 73.00 L 1303.00 67.00 Z M 652.00 39.00 L 653.00 65.00 L 793.00 64.00 L 810.00 66.00 L 833.00 70.00 L 841.00 72.00 L 853.00 76.00 L 862.00 80.00 L 870.00 85.00 L 875.00 89.00 L 882.00 96.00 L 887.00 103.00 L 889.00 108.00 L 893.00 113.00 L 898.00 118.00 L 904.00 126.00 L 913.00 140.00 L 917.00 147.00 L 918.00 151.00 L 920.00 153.00 L 926.00 166.00 L 932.00 182.00 L 932.00 185.00 L 934.00 187.00 L 934.00 179.00 L 935.00 178.00 L 935.00 149.00 L 932.00 124.00 L 927.00 105.00 L 921.00 91.00 L 917.00 84.00 L 909.00 73.00 L 897.00 61.00 L 889.00 55.00 L 881.00 50.00 L 873.00 46.00 L 854.00 39.00 Z M 1045.00 36.00 L 1045.00 53.00 L 1047.00 126.00 L 1051.00 221.00 L 1051.00 257.00 L 1053.00 293.00 L 1061.00 293.00 L 1060.00 252.00 L 1058.00 221.00 L 1057.00 153.00 L 1056.00 122.00 L 1054.00 93.00 L 1054.00 62.00 L 1053.00 61.00 L 1053.00 36.00 Z M 1021.00 36.00 L 1020.00 37.00 L 1017.00 37.00 L 1021.00 132.00 L 1021.00 166.00 L 1024.00 260.00 L 1025.00 261.00 L 1025.00 290.00 L 1026.00 291.00 L 1026.00 294.00 L 1049.00 293.00 L 1046.00 184.00 L 1044.00 153.00 L 1043.00 122.00 L 1043.00 87.00 L 1042.00 86.00 L 1042.00 51.00 L 1041.00 50.00 L 1041.00 36.00 Z M 488.00 37.00 L 475.00 36.00 L 473.00 38.00 L 472.00 40.00 L 472.00 42.00 L 468.00 48.00 L 458.00 70.00 L 447.00 90.00 L 372.00 241.00 L 372.00 296.00 L 386.00 296.00 L 401.00 265.00 L 408.00 248.00 L 418.00 229.00 L 427.00 210.00 L 433.00 195.00 L 437.00 189.00 L 443.00 174.00 L 462.00 136.00 L 468.00 121.00 L 477.00 104.00 L 495.00 57.00 L 495.00 52.00 Z M 652.00 29.00 L 652.00 35.00 L 832.00 34.00 L 828.00 34.00 L 827.00 33.00 L 818.00 33.00 L 808.00 31.00 L 778.00 29.00 Z M 1284.00 28.00 L 1273.00 28.00 L 1271.00 30.00 L 1265.00 43.00 L 1191.00 192.00 L 1185.00 202.00 L 1181.00 212.00 L 1178.00 216.00 L 1176.00 220.00 L 1175.00 224.00 L 1171.00 277.00 L 1172.00 289.00 L 1176.00 289.00 L 1184.00 287.00 L 1192.00 271.00 L 1192.00 269.00 L 1202.00 250.00 L 1208.00 235.00 L 1236.00 178.00 L 1243.00 161.00 L 1262.00 123.00 L 1269.00 106.00 L 1271.00 104.00 L 1280.00 85.00 L 1283.00 76.00 L 1293.00 56.00 L 1295.00 51.00 L 1295.00 49.00 L 1292.00 44.00 L 1286.00 30.00 Z M 124.00 35.00 L 108.00 45.00 L 103.00 50.00 L 106.00 50.00 L 107.00 49.00 L 125.00 46.00 L 162.00 46.00 L 183.00 50.00 L 196.00 55.00 L 207.00 62.00 L 219.00 74.00 L 225.00 83.00 L 231.00 96.00 L 236.00 112.00 L 241.00 144.00 L 242.00 158.00 L 241.00 294.00 L 268.00 293.00 L 268.00 96.00 L 262.00 78.00 L 255.00 64.00 L 247.00 52.00 L 242.00 46.00 L 234.00 38.00 L 222.00 29.00 L 211.00 23.00 L 199.00 18.00 L 185.00 14.00 L 181.00 14.00 L 180.00 13.00 L 177.00 13.00 L 170.00 15.00 L 156.00 20.00 L 151.00 23.00 L 146.00 24.00 Z M 165.00 11.00 L 154.00 10.00 L 133.00 10.00 L 121.00 11.00 L 101.00 14.00 L 84.00 19.00 L 77.00 22.00 L 62.00 30.00 L 53.00 37.00 L 43.00 47.00 L 36.00 56.00 L 29.00 68.00 L 23.00 82.00 L 18.00 98.00 L 18.00 294.00 L 46.00 293.00 L 45.00 153.00 L 48.00 128.00 L 52.00 108.00 L 57.00 92.00 L 63.00 80.00 L 68.00 73.00 L 75.00 65.00 L 81.00 60.00 L 86.00 58.00 L 91.00 55.00 L 97.00 49.00 L 106.00 42.00 L 125.00 30.00 L 127.00 30.00 L 137.00 24.00 L 156.00 16.00 L 161.00 15.00 L 166.00 13.00 Z" fill="#FFFFFF" fill-rule="evenodd"/>
</svg>