<svg xmlns="http://www.w3.org/2000/svg" viewBox="0 0 1200 760">
  <defs><linearGradient id="g" x1="0" x2="1" y1="0" y2="1"><stop offset="0" stop-color="#4b2444"/><stop offset="1" stop-color="#27334d"/></linearGradient></defs>
  <rect width="1200" height="760" fill="url(#g)"/>
  <g fill="none" stroke="#fff" stroke-opacity=".25" stroke-width="2">
    <path d="M160 140h880v460H160z"/><path d="M240 140v460M320 140v460M400 140v460M480 140v460M560 140v460M640 140v460M720 140v460M800 140v460M880 140v460M960 140v460"/>
    <path d="M160 220h880M160 300h880M160 380h880M160 460h880M160 540h880"/>
  </g>
  <rect x="325" y="190" width="330" height="250" rx="28" fill="none" stroke="#fff" stroke-width="8" opacity=".76"/>
  <rect x="695" y="265" width="230" height="175" rx="24" fill="none" stroke="#fff" stroke-width="8" opacity=".58"/>
  <circle cx="490" cy="315" r="70" fill="#fff" opacity=".12"/>
  <path d="M445 323c40-44 78-44 118 0-40 45-78 45-118 0z" fill="#fff" opacity=".58"/><circle cx="504" cy="323" r="18" fill="#fff" opacity=".9"/>
  <text x="96" y="655" fill="#fff" font-family="Inter, Arial" font-size="50" font-weight="800">Visão computacional para problemas reais</text>
</svg>
